<?xml version="1.0" encoding="UTF-8"?>
<svg version="1.1" xmlns="http://www.w3.org/2000/svg" width="128" height="128">
<path d="M0 0 C42.24 0 84.48 0 128 0 C128 42.24 128 84.48 128 128 C85.76 128 43.52 128 0 128 C0 85.76 0 43.52 0 0 Z " fill="#FE623F" transform="translate(0,0)"/>
<path d="M0 0 C0.73573242 0.00418945 1.47146484 0.00837891 2.22949219 0.01269531 C9.325423 0.15942155 15.27166347 1.38092203 21.4375 5 C27.00865723 11.06272993 28.20946216 17.20994526 28.0625 25.25 C28.07796875 26.09240234 28.0934375 26.93480469 28.109375 27.80273438 C28.06591306 34.85986682 26.47073956 41.11579134 21.6328125 46.43359375 C20.99085937 46.86800781 20.34890625 47.30242187 19.6875 47.75 C18.73230469 48.42869141 18.73230469 48.42869141 17.7578125 49.12109375 C12.75784794 51.83459765 8.33970027 52.55285103 2.6875 52.4375 C1.53507812 52.41945312 0.38265625 52.40140625 -0.8046875 52.3828125 C-2.10792969 52.34800781 -2.10792969 52.34800781 -3.4375 52.3125 C-3.43226318 53.24634521 -3.42702637 54.18019043 -3.42163086 55.14233398 C-3.4046238 58.59562796 -3.39206698 62.04887767 -3.38256836 65.50219727 C-3.37752879 66.99894918 -3.37069713 68.49569616 -3.36206055 69.99243164 C-3.34997841 72.13949807 -3.34426809 74.28649962 -3.33984375 76.43359375 C-3.33460693 77.7270874 -3.32937012 79.02058105 -3.32397461 80.35327148 C-3.4375 83.3125 -3.4375 83.3125 -4.4375 84.3125 C-6.06002492 84.41136353 -7.68697273 84.44221167 -9.3125 84.4375 C-10.63894531 84.44136719 -10.63894531 84.44136719 -11.9921875 84.4453125 C-14.4375 84.3125 -14.4375 84.3125 -17.4375 83.3125 C-17.4375 56.5825 -17.4375 29.8525 -17.4375 2.3125 C-11.24558995 0.93651999 -6.18008623 -0.0486621 0 0 Z " fill="#FDFBFA" transform="translate(60.4375,18.6875)"/>
<path d="M0 0 C5.27458533 0.08220133 5.27458533 0.08220133 8.375 2.75 C10.60833004 9.02459391 10.67955702 14.82207694 8.3125 21.0625 C6.6875 23.4375 6.6875 23.4375 4.6875 24.4375 C2.81370395 24.50783769 0.93748898 24.5218022 -0.9375 24.5 C-1.94039062 24.49097656 -2.94328125 24.48195313 -3.9765625 24.47265625 C-4.74742188 24.46105469 -5.51828125 24.44945313 -6.3125 24.4375 C-6.34137236 20.62501574 -6.35925492 16.8125593 -6.375 13 C-6.38337891 11.91138672 -6.39175781 10.82277344 -6.40039062 9.70117188 C-6.40361328 8.66669922 -6.40683594 7.63222656 -6.41015625 6.56640625 C-6.41539307 5.60806885 -6.42062988 4.64973145 -6.42602539 3.66235352 C-6.21083184 -0.55497735 -3.70402318 0.1618977 0 0 Z " fill="#FB583C" transform="translate(63.3125,31.5625)"/>
<path d="M0 0 C1.09248047 0.0009668 1.09248047 0.0009668 2.20703125 0.00195312 C6.00520161 0.03297267 9.55788405 0.2790069 13.25 1.1875 C13.25 1.5175 13.25 1.8475 13.25 2.1875 C4.01 2.1875 -5.23 2.1875 -14.75 2.1875 C-15.08 28.2575 -15.41 54.3275 -15.75 81.1875 C-12.45 81.8475 -9.15 82.5075 -5.75 83.1875 C-5.75 72.6275 -5.75 62.0675 -5.75 51.1875 C-1.25080435 48.93790218 0.59439425 49.10827725 5.5 49.5625 C6.76328125 49.67335937 8.0265625 49.78421875 9.328125 49.8984375 C10.29234375 49.99382812 11.2565625 50.08921875 12.25 50.1875 C8.61804504 52.60880331 6.86650652 52.39772785 2.5625 52.3125 C1.38300781 52.29445312 0.20351563 52.27640625 -1.01171875 52.2578125 C-2.36716797 52.22300781 -2.36716797 52.22300781 -3.75 52.1875 C-3.74476318 53.12134521 -3.73952637 54.05519043 -3.73413086 55.01733398 C-3.7171238 58.47062796 -3.70456698 61.92387767 -3.69506836 65.37719727 C-3.69002879 66.87394918 -3.68319713 68.37069616 -3.67456055 69.86743164 C-3.66247841 72.01449807 -3.65676809 74.16149962 -3.65234375 76.30859375 C-3.64710693 77.6020874 -3.64187012 78.89558105 -3.63647461 80.22827148 C-3.75 83.1875 -3.75 83.1875 -4.75 84.1875 C-6.37252492 84.28636353 -7.99947273 84.31721167 -9.625 84.3125 C-10.95144531 84.31636719 -10.95144531 84.31636719 -12.3046875 84.3203125 C-14.75 84.1875 -14.75 84.1875 -17.75 83.1875 C-17.75 56.4575 -17.75 29.7275 -17.75 2.1875 C-11.38375952 0.77277989 -6.33167279 -0.10877196 0 0 Z " fill="#FED8CA" transform="translate(60.75,18.8125)"/>
<path d="M0 0 C1.1697553 0.00276538 1.1697553 0.00276538 2.36314201 0.00558662 C3.7051165 0.00146263 3.7051165 0.00146263 5.07420158 -0.00274467 C6.05818932 0.00444588 7.04217705 0.01163643 8.05598259 0.01904488 C9.09015312 0.01875282 10.12432365 0.01846077 11.18983269 0.01815987 C14.62039794 0.01955721 18.05074808 0.03513748 21.48127556 0.05078316 C23.8549621 0.05451185 26.22865017 0.0573595 28.60233879 0.0593586 C34.85939065 0.06700638 41.11635012 0.0866647 47.3733654 0.10876656 C53.75437482 0.12920035 60.13539912 0.13835503 66.51643181 0.14843941 C79.04381505 0.1699095 91.57113415 0.20367648 104.09846306 0.24609566 C104.09846306 0.57609566 104.09846306 0.90609566 104.09846306 1.24609566 C99.68257818 1.43606965 95.26585264 1.59595826 90.84846306 1.74609566 C89.76731224 1.78410286 89.76731224 1.78410286 88.66431999 1.82287788 C77.14350466 2.21008547 65.63501387 2.25886822 54.10943413 2.15649605 C51.80748914 2.13670422 49.50554261 2.12008658 47.2035656 2.10449409 C45.65583587 2.09378517 44.10810638 2.08304288 42.56037712 2.07226753 C41.79089745 2.06696526 41.02141777 2.06166298 40.22862053 2.05620003 C35.56325859 2.02147672 30.89884387 1.9631322 26.23394394 1.88951683 C23.27102128 1.84790038 20.30819519 1.82700253 17.34503365 1.8111515 C15.94801192 1.79913545 14.55103534 1.77820067 13.15429115 1.74787331 C5.87725439 1.30796885 5.87725439 1.30796885 -0.88304329 3.3902607 C-2.45537559 4.84549877 -2.45537559 4.84549877 -3.90153694 7.24609566 C-4.02653694 4.87109566 -4.02653694 4.87109566 -3.90153694 2.24609566 C-1.90153694 0.24609566 -1.90153694 0.24609566 0 0 Z " fill="#E94338" transform="translate(3.9015369415283203,0.7539043426513672)"/>
<path d="M0 0 C0 0.66 0 1.32 0 2 C-1.35167857 2.34328345 -2.70654275 2.67402697 -4.0625 3 C-5.19365234 3.2784375 -5.19365234 3.2784375 -6.34765625 3.5625 C-9 4 -9 4 -16 4 C-16 14.56 -16 25.12 -16 36 C-20.62 36 -25.24 36 -30 36 C-30.495 34.515 -30.495 34.515 -31 33 C-27.04 33 -23.08 33 -19 33 C-18.67 22.77 -18.34 12.54 -18 2 C-11.565 1.505 -11.565 1.505 -5 1 C-2 0 -2 0 0 0 Z " fill="#EA6D51" transform="translate(75,69)"/>
<path d="M0 0 C0.70189453 0.05671875 1.40378906 0.1134375 2.12695312 0.171875 C3.85630285 0.31304641 5.58454088 0.46771959 7.3125 0.625 C3.68054504 3.04630331 1.92900652 2.83522785 -2.375 2.75 C-3.55449219 2.73195313 -4.73398437 2.71390625 -5.94921875 2.6953125 C-6.85285156 2.67210938 -7.75648437 2.64890625 -8.6875 2.625 C-8.68226318 3.55884521 -8.67702637 4.49269043 -8.67163086 5.45483398 C-8.6546238 8.90812796 -8.64206698 12.36137767 -8.63256836 15.81469727 C-8.62752879 17.31144918 -8.62069713 18.80819616 -8.61206055 20.30493164 C-8.59997841 22.45199807 -8.59426809 24.59899962 -8.58984375 26.74609375 C-8.58460693 28.0395874 -8.57937012 29.33308105 -8.57397461 30.66577148 C-8.6875 33.625 -8.6875 33.625 -9.6875 34.625 C-11.37358966 34.69705511 -13.06250659 34.70886068 -14.75 34.6875 C-15.66910156 34.67847656 -16.58820312 34.66945312 -17.53515625 34.66015625 C-18.24542969 34.64855469 -18.95570312 34.63695312 -19.6875 34.625 C-19.6875 34.295 -19.6875 33.965 -19.6875 33.625 C-16.7175 33.625 -13.7475 33.625 -10.6875 33.625 C-10.70321045 32.66609863 -10.7189209 31.70719727 -10.73510742 30.71923828 C-10.7893392 27.16724014 -10.82382497 23.61527869 -10.85229492 20.06298828 C-10.86739711 18.52451426 -10.88788046 16.98608339 -10.91381836 15.44775391 C-10.95014074 13.23849859 -10.96721119 11.02981152 -10.98046875 8.8203125 C-10.99595261 8.13067413 -11.01143646 7.44103577 -11.02738953 6.73049927 C-11.02807617 4.78955078 -11.02807617 4.78955078 -10.6875 1.625 C-6.92241505 -0.88505664 -4.29288391 -0.4008295 0 0 Z " fill="#FEE1D2" transform="translate(65.6875,68.375)"/>
<path d="M0 0 C5.27458533 0.08220133 5.27458533 0.08220133 8.375 2.75 C10.12699131 7.67226129 10.3864989 12.26003137 9.6875 17.4375 C9.0275 18.4275 8.3675 19.4175 7.6875 20.4375 C7.6875 15.4875 7.6875 10.5375 7.6875 5.4375 C7.0275 5.4375 6.3675 5.4375 5.6875 5.4375 C5.3575 4.7775 5.0275 4.1175 4.6875 3.4375 C0.97150809 3.23663557 -0.08458445 3.2855563 -3.3125 5.4375 C-3.6425 4.7775 -3.9725 4.1175 -4.3125 3.4375 C-4.6425 10.0375 -4.9725 16.6375 -5.3125 23.4375 C-2.0125 23.4375 1.2875 23.4375 4.6875 23.4375 C4.6875 23.7675 4.6875 24.0975 4.6875 24.4375 C1.0575 24.4375 -2.5725 24.4375 -6.3125 24.4375 C-6.33932792 20.62495377 -6.35925477 16.81259388 -6.375 13 C-6.38337891 11.91138672 -6.39175781 10.82277344 -6.40039062 9.70117188 C-6.40361328 8.66669922 -6.40683594 7.63222656 -6.41015625 6.56640625 C-6.41539307 5.60806885 -6.42062988 4.64973145 -6.42602539 3.66235352 C-6.21083184 -0.55497735 -3.70402318 0.1618977 0 0 Z " fill="#E46A57" transform="translate(63.3125,31.5625)"/>
<path d="M0 0 C0 0.66 0 1.32 0 2 C0.66 2 1.32 2 2 2 C2 2.66 2 3.32 2 4 C0.77410156 3.67257813 -0.45179687 3.34515625 -1.71484375 3.0078125 C-7.66746345 1.68500812 -13.49202571 1.77986297 -19.5625 1.875 C-21.21862305 1.88853516 -21.21862305 1.88853516 -22.90820312 1.90234375 C-25.6057017 1.92569872 -28.30273077 1.95844946 -31 2 C-31 1.67 -31 1.34 -31 1 C-29.02 1 -27.04 1 -25 1 C-24.67 0.34 -24.34 -0.32 -24 -1 C-15.73658401 -2.6495708 -8.05221602 -2.22130097 0 0 Z " fill="#F35140" transform="translate(76,18)"/>
<path d="M0 0 C1.93166016 0.01740234 1.93166016 0.01740234 3.90234375 0.03515625 C5.19269531 0.04417969 6.48304687 0.05320312 7.8125 0.0625 C8.81152344 0.07410156 9.81054688 0.08570312 10.83984375 0.09765625 C10.50984375 0.75765625 10.17984375 1.41765625 9.83984375 2.09765625 C6.20984375 2.09765625 2.57984375 2.09765625 -1.16015625 2.09765625 C-1.49015625 9.68765625 -1.82015625 17.27765625 -2.16015625 25.09765625 C-2.82015625 25.09765625 -3.48015625 25.09765625 -4.16015625 25.09765625 C-4.18902609 21.11850466 -4.20691031 17.13937972 -4.22265625 13.16015625 C-4.23103516 12.02384766 -4.23941406 10.88753906 -4.24804688 9.71679688 C-4.25126953 8.63720703 -4.25449219 7.55761719 -4.2578125 6.4453125 C-4.26304932 5.44508057 -4.26828613 4.44484863 -4.27368164 3.41430664 C-4.09723044 -0.18643615 -3.69266897 0.11411214 0 0 Z " fill="#FFE2D9" transform="translate(59.16015625,30.90234375)"/>
<path d="M0 0 C2.31 0.66 4.62 1.32 7 2 C7.12375 2.5775 7.2475 3.155 7.375 3.75 C7.89650959 5.99236183 7.89650959 5.99236183 9.02685547 7.77441406 C10.26274359 10.60089577 10.2267378 12.77969606 10.1953125 15.859375 C10.18564453 17.53193359 10.18564453 17.53193359 10.17578125 19.23828125 C10.15902344 20.39714844 10.14226562 21.55601563 10.125 22.75 C10.11597656 23.92433594 10.10695313 25.09867188 10.09765625 26.30859375 C10.07410063 29.20593536 10.04120652 32.10286441 10 35 C8.515 35.495 8.515 35.495 7 36 C7.16008545 35.43249023 7.3201709 34.86498047 7.48510742 34.28027344 C8.38198047 30.30834634 8.26814435 26.30706386 8.3125 22.25 C8.34150391 21.38117187 8.37050781 20.51234375 8.40039062 19.6171875 C8.47232038 12.24715426 6.70410485 7.00456094 1.75 1.5 C1.1725 1.005 0.595 0.51 0 0 Z " fill="#EC745A" transform="translate(79,22)"/>
<path d="M0 0 C4.95 0 9.9 0 15 0 C15 0.99 15 1.98 15 3 C10.38 3 5.76 3 1 3 C0.67 2.01 0.34 1.02 0 0 Z " fill="#EC7756" transform="translate(44,102)"/>
<path d="M0 0 C6.6 0 13.2 0 20 0 C20 0.66 20 1.32 20 2 C20.66 2 21.32 2 22 2 C22 2.66 22 3.32 22 4 C20.1746875 3.5359375 20.1746875 3.5359375 18.3125 3.0625 C12.26923779 1.70131794 6.17054072 1.36241197 0 1 C0 0.67 0 0.34 0 0 Z " fill="#E65F44" transform="translate(56,18)"/>
<path d="M0 0 C3.63 0 7.26 0 11 0 C10.67 0.99 10.34 1.98 10 3 C8.8553125 2.938125 8.8553125 2.938125 7.6875 2.875 C4.77281584 2.77919176 4.77281584 2.77919176 2 5 C1.34 3.35 0.68 1.7 0 0 Z " fill="#ED6647" transform="translate(58,32)"/>
<path d="M0 0 C0.33 0 0.66 0 1 0 C1.125 2.375 1.125 2.375 1 5 C0.34 5.66 -0.32 6.32 -1 7 C-2.32 7 -3.64 7 -5 7 C-5 7.66 -5 8.32 -5 9 C-6.32 8.67 -7.64 8.34 -9 8 C-8.51789063 7.67386719 -8.03578125 7.34773438 -7.5390625 7.01171875 C-6.90742187 6.57472656 -6.27578125 6.13773437 -5.625 5.6875 C-4.99851562 5.25824219 -4.37203125 4.82898438 -3.7265625 4.38671875 C-1.73621155 2.93079661 -1.73621155 2.93079661 0 0 Z " fill="#EC7657" transform="translate(85,60)"/>
<path d="M0 0 C5.94 0 11.88 0 18 0 C18 0.99 18 1.98 18 3 C17.34 2.67 16.68 2.34 16 2 C13.28737884 1.7677354 10.59226874 1.58063765 7.875 1.4375 C7.12089844 1.39431641 6.36679688 1.35113281 5.58984375 1.30664062 C3.72678112 1.2005168 1.86341476 1.09974999 0 1 C0 0.67 0 0.34 0 0 Z " fill="#E6624B" transform="translate(108,1)"/>
<path d="M0 0 C1.32 0 2.64 0 4 0 C4 1.32 4 2.64 4 4 C2.35 4 0.7 4 -1 4 C-0.67 2.68 -0.34 1.36 0 0 Z " fill="#F4BF8D" transform="translate(124,124)"/>
</svg>
